<svg version="1.1" id="Layer_1" xmlns="http://www.w3.org/2000/svg" xmlns:xlink="http://www.w3.org/1999/xlink" x="0px" y="0px"
	 width="100%" viewBox="0 0 3840 2160" enable-background="new 0 0 3840 2160" xml:space="preserve">
<path fill="#47704C" opacity="1.000000" stroke="none" 
	d="
M2820.000000,2162.000000 
	C1880.000122,2162.000000 941.000366,2162.000000 2.000378,2162.000000 
	C2.000252,1442.000244 2.000252,722.000610 2.000126,2.000668 
	C1281.999512,2.000445 2561.999023,2.000445 3841.999023,2.000223 
	C3841.999268,721.999329 3841.999268,1441.998657 3841.999512,2161.999023 
	C3501.666748,2162.000000 3161.333252,2162.000000 2820.000000,2162.000000 
M2366.274414,1266.865723 
	C2366.742676,1267.341553 2367.211182,1267.817505 2368.325684,1269.665649 
	C2375.759766,1281.420532 2372.740967,1294.562988 2361.260742,1303.139526 
	C2357.801514,1305.723755 2354.353516,1308.515503 2350.484619,1310.320068 
	C2341.747314,1314.394653 2332.944580,1318.489746 2323.824707,1321.551880 
	C2293.718994,1331.660034 2262.569092,1337.499268 2231.243408,1341.946655 
	C2196.648438,1346.858154 2161.943359,1351.285889 2127.151611,1354.442749 
	C2084.411377,1358.320801 2041.547729,1360.917358 1998.706787,1363.573486 
	C1975.124268,1365.035645 1951.479004,1365.483276 1926.319580,1366.174072 
	C1924.243530,1366.280884 1922.167603,1366.387817 1918.207886,1366.395630 
	C1879.453003,1366.421997 1840.698242,1366.448486 1800.689941,1366.268921 
	C1799.847900,1366.308472 1799.005737,1366.348022 1796.286011,1366.147461 
	C1769.031006,1364.892090 1741.724487,1364.308350 1714.533691,1362.218506 
	C1677.054077,1359.337769 1639.601562,1355.852173 1602.251465,1351.620483 
	C1572.448730,1348.243652 1543.020874,1342.277954 1514.416016,1333.045898 
	C1504.968506,1329.996826 1495.550049,1326.237427 1486.955444,1321.335083 
	C1477.732300,1316.074341 1477.425293,1308.217651 1485.177246,1300.810059 
	C1488.506470,1297.628784 1492.417847,1294.855835 1496.482422,1292.676514 
	C1531.313354,1274.001221 1568.596558,1263.656494 1607.906128,1260.327759 
	C1610.234009,1260.130737 1612.530273,1259.558350 1614.841187,1259.160522 
	C1611.457397,1256.036011 1608.140015,1254.140503 1604.692993,1253.864258 
	C1592.783813,1252.910522 1580.727051,1251.216431 1568.910522,1252.145508 
	C1521.854736,1255.846191 1477.362793,1269.382812 1435.274780,1290.430542 
	C1423.461060,1296.338623 1412.564697,1304.313965 1401.943604,1312.270264 
	C1397.070557,1315.920776 1393.107544,1321.388306 1390.104004,1326.794312 
	C1385.334839,1335.377686 1387.016479,1343.629517 1394.101562,1350.443359 
	C1397.176636,1353.400879 1400.699341,1356.383545 1404.586182,1357.913330 
	C1415.699707,1362.287598 1426.830200,1367.275513 1438.439087,1369.625244 
	C1502.139526,1382.517944 1566.680664,1389.553589 1631.312500,1395.692139 
	C1653.173950,1397.768311 1675.095337,1399.352295 1697.022461,1400.560425 
	C1724.592285,1402.079346 1752.195923,1402.981689 1781.085693,1404.528320 
	C1783.304077,1404.744873 1785.522583,1404.961304 1789.629517,1405.456299 
	C1803.117676,1405.478882 1816.605957,1405.501465 1831.929810,1405.804932 
	C1846.547363,1405.716919 1861.165039,1405.629028 1877.682495,1405.632080 
	C1892.911743,1405.213135 1908.140869,1404.794189 1924.044067,1404.552612 
	C1924.755981,1404.423828 1925.468018,1404.295044 1928.030029,1404.265381 
	C1954.624146,1403.002563 1981.282959,1402.513550 2007.797363,1400.297485 
	C2048.915771,1396.861084 2090.029785,1393.005981 2130.972900,1387.934570 
	C2178.596680,1382.035889 2225.726562,1373.067261 2272.065186,1360.338989 
	C2301.349365,1352.295166 2330.231445,1343.126465 2357.117676,1328.668579 
	C2367.706543,1322.974365 2377.989014,1316.730103 2385.472412,1306.982910 
	C2394.527344,1295.189087 2393.238281,1283.976562 2381.575195,1274.681763 
	C2377.705811,1271.598267 2373.169922,1269.351318 2367.931396,1266.286621 
	C2367.202881,1266.224121 2366.474121,1266.161621 2365.631836,1266.026489 
	C2365.631836,1266.026489 2365.921143,1265.913940 2366.274414,1266.865723 
M2451.500000,1691.962891 
	C2455.035156,1692.043701 2456.341064,1690.545654 2454.459961,1685.945801 
	C2448.746826,1686.284912 2442.593994,1686.592896 2436.458740,1687.109131 
	C2435.888672,1687.157227 2435.429688,1688.526855 2434.506104,1689.894531 
	C2437.192383,1691.328003 2439.584229,1692.604614 2442.156006,1693.977051 
	C2442.156006,1699.396240 2442.142578,1704.355835 2442.160400,1709.315430 
	C2442.174316,1713.183838 2443.995117,1714.791870 2448.722900,1712.430664 
	C2449.224121,1705.640015 2449.725586,1698.849243 2451.500000,1691.962891 
M2490.925293,1687.501465 
	C2490.707031,1687.121826 2490.380127,1686.954712 2488.506836,1686.556885 
	C2487.026367,1686.702881 2485.545654,1686.848755 2483.455566,1687.073608 
	C2483.039795,1687.269531 2482.826660,1687.597412 2482.067871,1689.338745 
	C2479.619873,1692.902222 2480.219482,1698.372559 2474.952148,1700.943237 
	C2472.881592,1696.376953 2471.001709,1692.230713 2468.992188,1687.497437 
	C2468.744873,1687.123535 2468.398438,1686.959839 2466.414307,1686.570557 
	C2463.011719,1686.236328 2460.471191,1687.141602 2460.447510,1691.121460 
	C2460.408203,1697.669312 2460.287842,1704.230225 2460.695312,1710.754761 
	C2460.768066,1711.923706 2463.222412,1712.944092 2465.668701,1714.910522 
	C2466.077881,1709.990112 2466.319336,1707.088013 2467.657959,1704.183105 
	C2468.387939,1704.142700 2469.118164,1704.102417 2470.450684,1705.330322 
	C2471.951904,1708.293091 2473.453369,1711.255737 2475.990723,1716.262573 
	C2478.773682,1710.690674 2480.434570,1707.365356 2483.209229,1704.097046 
	C2483.951904,1704.127319 2484.694336,1704.157471 2485.588623,1705.803101 
	C2485.988770,1708.445679 2486.388916,1711.088257 2486.926270,1714.637573 
	C2492.309082,1709.340820 2492.817383,1704.920288 2490.925293,1687.501465 
M1954.085205,1475.299805 
	C1960.800293,1474.915527 1967.515503,1474.531128 1976.073486,1474.260254 
	C2013.660278,1472.836426 2051.277588,1471.956055 2088.826172,1469.853638 
	C2138.042969,1467.097778 2187.024414,1461.624268 2235.648926,1453.474731 
	C2280.049072,1446.033203 2323.964600,1436.456787 2366.122803,1420.146729 
	C2386.706299,1412.183472 2406.492920,1402.720337 2423.947510,1388.937500 
	C2435.623047,1379.718384 2445.434814,1368.963379 2451.164795,1355.043579 
	C2452.856689,1350.933228 2453.585205,1346.426392 2455.100830,1340.823486 
	C2446.035889,1347.810059 2438.805176,1354.120483 2430.867188,1359.359375 
	C2408.711670,1373.981567 2384.102295,1383.402466 2359.051514,1391.615601 
	C2299.338867,1411.192871 2237.818359,1422.694458 2175.813477,1431.852051 
	C2114.516602,1440.905029 2052.829102,1446.225830 1990.987793,1449.391235 
	C1955.411133,1451.212036 1919.753418,1451.895386 1884.125366,1452.163818 
	C1827.171875,1452.592773 1770.229126,1451.226318 1713.470703,1446.235474 
	C1675.686523,1442.912964 1638.007568,1438.392334 1600.282837,1434.396484 
	C1594.942383,1433.830933 1589.608887,1433.200439 1584.272095,1432.599976 
	C1584.086670,1433.343994 1583.901123,1434.088135 1583.715576,1434.832275 
	C1589.781250,1437.271851 1595.761963,1439.954468 1601.927002,1442.109741 
	C1632.284180,1452.722168 1663.802368,1458.276123 1695.567261,1462.007324 
	C1726.292114,1465.616211 1757.143066,1468.532959 1788.021362,1470.354248 
	C1823.229126,1472.430786 1858.528076,1472.959351 1895.364136,1474.530151 
	C1901.522339,1474.806274 1907.680542,1475.082397 1915.718628,1475.543579 
	C1925.821777,1475.493286 1935.924927,1475.442993 1946.959839,1475.429321 
	C1946.959839,1475.429321 1947.877930,1475.266602 1949.386841,1475.294434 
	C1950.389038,1475.215576 1951.391235,1475.136719 1954.085205,1475.299805 
M1820.946899,1104.555176 
	C1822.552612,1104.762817 1824.158325,1104.970459 1827.650391,1105.454590 
	C1853.155151,1105.368408 1878.659912,1105.282227 1905.392700,1105.207397 
	C1906.999756,1104.854248 1908.606812,1104.501099 1912.056152,1104.252930 
	C1916.716919,1104.185913 1921.409912,1104.448608 1926.033447,1103.999146 
	C1959.801025,1100.715942 1993.639526,1097.966309 2027.292114,1093.744141 
	C2073.269287,1087.975708 2118.450195,1077.911987 2163.129639,1065.652466 
	C2166.131592,1064.828979 2168.990234,1063.483276 2173.068604,1061.945679 
	C2170.642822,1060.195801 2169.693848,1059.225098 2168.540771,1058.722046 
	C2151.035889,1051.085327 2134.541504,1041.793457 2120.363037,1028.845581 
	C2116.591064,1025.401123 2112.542236,1025.889404 2108.207520,1026.582275 
	C2074.032471,1032.043945 2039.916748,1037.921387 2005.660278,1042.814087 
	C1968.416992,1048.133545 1930.902588,1051.078857 1893.282471,1051.526245 
	C1868.001587,1051.826904 1842.670288,1051.462769 1817.423950,1050.174316 
	C1787.198853,1048.631958 1757.014771,1046.073242 1726.865112,1043.371582 
	C1714.291016,1042.244995 1701.740601,1040.005371 1690.225830,1034.224731 
	C1676.865479,1027.517700 1673.926880,1017.306458 1681.769897,1004.628723 
	C1683.509033,1001.817810 1685.830444,999.371155 1687.823364,996.711609 
	C1689.074219,995.042114 1690.212769,993.288452 1691.401733,991.572632 
	C1668.145630,998.162170 1646.150146,1006.409790 1628.288452,1022.669739 
	C1625.402832,1025.296631 1623.167847,1028.817261 1621.218628,1032.257080 
	C1617.028564,1039.650879 1617.410767,1047.156250 1622.835205,1053.709595 
	C1626.402832,1058.019531 1630.409180,1062.325684 1635.074585,1065.284546 
	C1642.341797,1069.893677 1650.131592,1073.836182 1658.061401,1077.212769 
	C1679.334351,1086.271240 1701.822388,1091.152100 1724.505127,1094.941040 
	C1756.035400,1100.207886 1787.722412,1104.219116 1820.946899,1104.555176 
M1757.735474,951.535950 
	C1784.609863,951.372070 1811.484253,951.208191 1839.651733,951.220642 
	C1841.827148,950.868347 1844.002563,950.516052 1848.028198,950.264893 
	C1865.984985,949.648193 1883.964600,949.408508 1901.893311,948.326721 
	C1929.120361,946.683960 1956.334595,944.721558 1983.513916,942.420471 
	C2034.317627,938.119263 2084.691895,930.730164 2134.491455,919.759155 
	C2146.764404,917.055420 2159.348633,915.272461 2170.653076,908.861572 
	C2186.862549,899.669128 2203.390137,891.038208 2219.753174,882.115051 
	C2221.177979,881.338074 2222.389648,880.170349 2223.700439,879.184143 
	C2214.571777,879.349792 2206.098633,880.911804 2197.567383,882.031067 
	C2144.777832,888.956543 2092.067627,896.637329 2039.146851,902.364868 
	C1998.494995,906.764587 1957.585449,908.857910 1916.764526,911.588623 
	C1896.518921,912.942993 1876.214600,913.423340 1854.654541,914.204834 
	C1853.804077,914.295654 1852.953613,914.386475 1850.219116,914.385925 
	C1838.139038,914.461975 1826.058960,914.538025 1813.039917,914.576721 
	C1813.039917,914.576721 1812.114868,914.741455 1810.413940,914.661011 
	C1808.148315,914.756897 1805.882812,914.852783 1801.846924,914.664490 
	C1791.329834,914.716736 1780.812744,914.768921 1768.406006,914.542786 
	C1757.583374,914.521545 1746.760864,914.500305 1734.666260,914.257812 
	C1733.807739,914.272888 1732.949341,914.287964 1730.273682,914.025513 
	C1719.640381,913.431030 1708.947754,913.350098 1698.386230,912.132629 
	C1677.900146,909.771118 1657.447998,907.026917 1637.068481,903.879517 
	C1630.904663,902.927551 1624.793335,900.643250 1619.064697,898.065247 
	C1605.703613,892.052368 1604.775391,884.026123 1616.230225,875.163940 
	C1619.889282,872.333130 1623.978149,869.973511 1628.097046,867.835022 
	C1659.968384,851.287781 1694.322388,841.664490 1728.655518,832.004150 
	C1736.215942,829.876953 1743.808105,827.862854 1751.385742,825.796692 
	C1749.005371,824.050903 1746.796875,823.610474 1744.615479,823.718323 
	C1733.647339,824.260498 1722.652832,824.595764 1711.728149,825.638489 
	C1646.965942,831.819275 1585.741699,850.377075 1527.522095,879.085815 
	C1521.320557,882.143799 1515.327271,886.085632 1510.145996,890.648987 
	C1501.212036,898.517273 1501.715454,906.645264 1510.952026,914.163147 
	C1513.762573,916.450745 1516.968506,918.453796 1520.300781,919.857483 
	C1527.349609,922.826843 1534.475708,925.734375 1541.791992,927.925842 
	C1568.704834,935.987183 1596.436279,939.848633 1624.252075,942.936646 
	C1663.976196,947.346863 1703.791016,950.621521 1745.276123,950.570190 
	C1748.800781,950.830444 1752.325439,951.090759 1757.735474,951.535950 
M2014.288330,791.994873 
	C2013.711182,796.261414 2013.470703,800.606079 2012.501831,804.781677 
	C2006.655029,829.975769 1992.406860,850.147888 1973.660156,868.211792 
	C1973.339478,869.014160 1973.018799,869.816528 1972.697998,870.618896 
	C1973.783813,870.295349 1974.869507,869.971802 1977.140015,868.689636 
	C1978.866455,867.686035 1980.617554,866.722412 1982.315552,865.672791 
	C2012.531006,846.994446 2040.316895,825.444031 2061.791260,796.756470 
	C2079.654785,772.892273 2090.749268,746.724426 2087.052979,715.142151 
	C2086.923340,714.544739 2086.642090,714.030151 2086.247803,711.989502 
	C2083.795898,694.019165 2075.253662,678.761841 2065.256104,664.054993 
	C2050.312012,642.071960 2035.113525,620.233459 2021.041748,597.697632 
	C2013.676392,585.901978 2008.416260,572.772400 2007.661133,557.501526 
	C2007.509644,556.901367 2007.217285,556.380188 2006.487183,554.193604 
	C2006.553589,549.478088 2006.619995,544.762512 2007.201416,539.256592 
	C2007.494263,538.682495 2007.637085,538.073181 2007.661743,535.845581 
	C2010.060669,515.937378 2019.836914,499.395630 2031.699951,483.912292 
	C2053.619141,455.303894 2081.403076,432.969604 2110.041504,411.642609 
	C2149.646973,382.148254 2191.581055,356.212646 2234.069580,331.143127 
	C2236.787598,329.539459 2239.379883,327.722931 2242.030518,326.005402 
	C2238.526123,325.168060 2235.618896,325.552826 2232.904785,326.493896 
	C2204.915283,336.197784 2176.612305,345.115051 2149.066406,355.953552 
	C2100.542480,375.046265 2054.352051,398.757721 2012.717896,430.563904 
	C1986.586792,450.526520 1963.119019,473.121674 1946.267944,501.710541 
	C1935.366333,520.205994 1926.942749,539.711670 1925.262817,562.299011 
	C1924.977173,562.818604 1924.867432,563.373047 1924.513672,565.784729 
	C1924.627197,574.520020 1924.740723,583.255249 1924.872070,592.898499 
	C1925.000122,593.512939 1925.289185,594.038940 1925.682983,596.154724 
	C1926.229858,600.094849 1926.563477,604.078491 1927.357544,607.968140 
	C1933.383301,637.484314 1946.613770,663.817383 1963.851929,688.171387 
	C1972.288696,700.090698 1981.854858,711.210327 1990.901489,722.698486 
	C2003.663086,738.904114 2013.581909,756.319946 2014.046631,779.464783 
	C2014.114014,783.083923 2014.181396,786.703064 2014.288330,791.994873 
M1499.784180,1571.026001 
	C1499.135498,1570.262085 1498.486938,1569.498169 1496.002319,1568.458862 
	C1484.670410,1568.416260 1473.336914,1568.232910 1462.007202,1568.371094 
	C1450.836426,1568.507568 1439.595825,1567.641602 1427.660156,1569.048950 
	C1427.660156,1574.813110 1427.660034,1579.441895 1427.660034,1584.070557 
	C1427.660034,1705.396240 1427.664062,1826.721924 1427.644897,1948.047607 
	C1427.644165,1952.708130 1427.422119,1957.368530 1426.709106,1963.381592 
	C1426.543091,1966.348999 1426.377075,1969.316406 1426.289429,1974.113037 
	C1425.488525,1986.708252 1425.215820,1999.364868 1423.762207,2011.884399 
	C1421.604248,2030.470947 1414.479126,2047.044067 1402.194580,2061.463623 
	C1391.041626,2074.554932 1377.825439,2084.983643 1363.360840,2094.032959 
	C1361.189575,2095.391357 1359.181641,2097.010986 1356.345825,2099.051025 
	C1367.770386,2112.449219 1378.674805,2125.237305 1390.102295,2138.639160 
	C1400.787842,2133.365479 1410.884644,2129.040039 1420.343628,2123.604736 
	C1472.496338,2093.635254 1498.879883,2048.695068 1498.636230,1987.290649 
	C1498.769165,1986.229126 1498.902100,1985.167603 1499.471680,1982.286377 
	C1499.481445,1974.213623 1499.491211,1966.140991 1499.755127,1956.999023 
	C1499.699463,1956.636963 1499.643799,1956.274902 1499.780640,1954.057739 
	C1499.804810,1828.077148 1499.829590,1702.096436 1499.842651,1576.115845 
	C1499.842773,1574.786133 1499.687866,1573.456421 1499.784180,1571.026001 
M2067.182861,1687.038818 
	C2066.843262,1688.026611 2066.503906,1689.014404 2065.823486,1691.617920 
	C2052.781494,1778.658691 2014.685547,1927.333618 2000.343628,1946.050171 
	C1999.458984,1942.804199 1998.609619,1939.984619 1997.924561,1937.125732 
	C1993.664185,1919.346069 1990.325806,1901.290039 1985.042603,1883.821167 
	C1967.424927,1825.567261 1949.127075,1767.518921 1931.053833,1709.402954 
	C1928.699951,1701.833862 1926.136230,1694.329956 1923.590088,1686.552979 
	C1899.285767,1686.552979 1875.681152,1686.552979 1851.159546,1686.548706 
	C1850.489624,1686.825195 1850.213257,1687.321045 1850.368164,1689.560059 
	C1851.285767,1692.749512 1852.154175,1695.954224 1853.128174,1699.126343 
	C1877.594360,1778.810059 1902.062256,1858.493164 1926.553223,1938.169312 
	C1934.066284,1962.611450 1941.687256,1987.020508 1949.155762,2011.476074 
	C1950.269043,2015.121582 1951.149780,2018.624634 1956.426025,2018.942749 
	C1956.426025,2018.942749 1957.286865,2018.998047 1957.286865,2018.998047 
	C1957.286865,2018.998047 1958.069092,2018.633667 1959.755981,2018.442383 
	C1963.147827,2018.506104 1966.539673,2018.569946 1970.426758,2018.944214 
	C1970.426758,2018.944214 1971.287476,2018.998779 1971.287476,2018.998779 
	C1971.287476,2018.998779 1972.069214,2018.633667 1973.755981,2018.442627 
	C1977.147827,2018.506348 1980.539673,2018.570068 1984.426758,2018.944214 
	C1984.426758,2018.944214 1985.287476,2018.998779 1985.287476,2018.998779 
	C1985.287476,2018.998779 1986.069214,2018.633667 1987.755981,2018.442627 
	C1991.147827,2018.506348 1994.539673,2018.570068 1998.426758,2018.944214 
	C1998.426758,2018.944214 1999.287476,2018.998779 1999.287476,2018.998779 
	C1999.287476,2018.998779 2000.069214,2018.633667 2001.755981,2018.442505 
	C2005.147827,2018.506226 2008.539673,2018.569946 2012.426758,2018.944214 
	C2012.426758,2018.944214 2013.287476,2018.998779 2013.287476,2018.998779 
	C2013.287476,2018.998779 2014.069214,2018.633667 2015.755981,2018.442505 
	C2019.147827,2018.506226 2022.539673,2018.569946 2026.427246,2018.943970 
	C2026.427246,2018.943970 2027.288452,2018.997437 2027.288452,2018.997437 
	C2027.288452,2018.997437 2028.070190,2018.631592 2029.645752,2018.427002 
	C2034.553101,2018.871094 2037.514404,2016.942017 2039.509033,2012.144897 
	C2046.156738,1996.157227 2053.586670,1980.491577 2060.102295,1964.452637 
	C2095.191650,1878.074829 2119.959961,1788.700684 2137.138184,1697.152954 
	C2137.723877,1694.031738 2137.726807,1690.801270 2138.079346,1686.718628 
	C2114.039062,1686.718628 2091.129395,1686.718628 2067.182861,1687.038818 
M2104.462646,124.382851 
	C2104.440918,121.606743 2104.419434,118.830635 2104.590332,115.527023 
	C2104.643555,114.933937 2104.467041,114.422501 2103.793701,112.370636 
	C2099.454346,81.661751 2089.035889,53.658775 2067.704590,30.417660 
	C2067.506592,34.262402 2068.145996,37.812984 2068.886963,41.342182 
	C2075.178223,71.303589 2076.371826,101.348053 2070.894775,131.597595 
	C2063.772461,170.933411 2045.800293,205.055588 2021.320557,236.133865 
	C1994.535767,270.138214 1962.071411,298.246155 1928.621704,325.303223 
	C1894.703613,352.739380 1860.357056,379.652832 1826.709595,407.415039 
	C1799.912720,429.524872 1775.654663,454.235565 1755.669800,482.853363 
	C1742.282837,502.023010 1733.149902,522.777527 1731.629150,546.493347 
	C1729.895020,573.533569 1736.686890,598.584412 1748.337036,622.687073 
	C1762.526978,652.044495 1781.841309,677.879883 1802.946167,702.445129 
	C1839.278076,744.734375 1879.944580,782.687195 1921.906616,820.289978 
	C1921.693237,820.605896 1921.479858,820.921753 1921.266479,821.237732 
	C1921.251343,820.812195 1921.236206,820.386658 1921.634399,818.540588 
	C1919.165283,813.142517 1917.312256,807.346313 1914.124023,802.413025 
	C1897.380859,776.505005 1880.505737,750.676697 1863.274902,725.091125 
	C1847.875000,702.224060 1832.354370,679.448547 1821.425537,653.995544 
	C1814.342285,637.498840 1808.271729,620.654175 1807.711060,601.518982 
	C1807.591309,600.941711 1807.325684,600.442078 1806.550659,598.217896 
	C1806.596313,591.494263 1806.641968,584.770630 1807.202393,577.257141 
	C1807.494873,576.683411 1807.637573,576.074524 1807.647827,573.778259 
	C1810.554932,561.529297 1812.325684,548.868103 1816.589966,537.111450 
	C1827.811523,506.173584 1847.831177,480.837982 1870.253174,457.263794 
	C1891.435669,434.992981 1915.552246,416.082062 1939.254395,396.663849 
	C1979.824951,363.426117 2017.429199,327.202545 2048.262695,284.507263 
	C2079.553711,241.178619 2102.840576,194.623337 2105.376709,138.523010 
	C2105.152832,134.359146 2104.928955,130.195282 2104.462646,124.382851 
M2274.992920,2025.599854 
	C2276.091309,2025.202515 2277.189941,2024.805054 2280.019287,2024.357910 
	C2284.296387,2023.897705 2288.616943,2023.682983 2292.843506,2022.936768 
	C2317.625977,2018.561157 2339.100342,2007.099609 2358.800049,1991.884521 
	C2362.050049,1989.374268 2365.390137,1986.980957 2369.641357,1983.826904 
	C2371.750732,1996.264526 2373.559326,2006.929443 2375.416504,2017.880859 
	C2393.423096,2017.880859 2410.631592,2017.880859 2428.932373,2016.618652 
	C2429.071289,2006.335327 2429.209961,1996.052002 2429.437012,1984.606445 
	C2429.409180,1983.830444 2429.381592,1983.054321 2429.710693,1980.391724 
	C2429.778564,1979.394775 2429.905518,1978.397705 2429.906006,1977.400757 
	C2429.940430,1913.098267 2429.990234,1848.795654 2429.918701,1784.493286 
	C2429.914551,1780.895386 2428.898193,1777.298584 2428.343994,1771.946777 
	C2427.072021,1740.754517 2415.355713,1715.067871 2388.121582,1698.248169 
	C2370.529297,1687.383179 2350.970459,1682.383179 2329.706299,1681.428711 
	C2329.244629,1681.253174 2328.780273,1681.245728 2326.502441,1680.741943 
	C2314.922607,1680.951660 2303.342773,1681.161377 2291.034424,1681.270874 
	C2290.517822,1681.287476 2290.069824,1681.471680 2287.926514,1681.714722 
	C2252.142090,1683.757446 2218.314697,1693.210571 2184.823242,1707.936035 
	C2188.234131,1722.278320 2191.425781,1735.698486 2194.779297,1749.798462 
	C2208.106201,1745.919189 2220.333740,1741.772827 2232.851074,1738.878906 
	C2245.745605,1735.897705 2258.922119,1734.136597 2273.020020,1731.846436 
	C2273.351074,1731.738281 2273.682129,1731.630127 2275.761475,1731.625732 
	C2279.840820,1731.500122 2283.920410,1731.374512 2289.573486,1731.505005 
	C2291.689941,1731.413208 2293.806152,1731.321411 2297.725098,1731.531860 
	C2302.703369,1731.815796 2307.729980,1731.753540 2312.651855,1732.441284 
	C2339.579834,1736.205078 2356.232666,1750.800049 2359.217285,1775.440430 
	C2360.881592,1789.179443 2359.614502,1803.275024 2359.597412,1817.209717 
	C2359.596924,1817.709106 2358.838379,1818.207275 2357.656006,1819.661499 
	C2348.184082,1819.661499 2337.921143,1819.472290 2327.667480,1819.696533 
	C2294.898682,1820.413086 2262.684326,1824.330200 2232.218506,1837.418091 
	C2213.551514,1845.437378 2197.267578,1856.754028 2185.444336,1873.555298 
	C2165.855469,1901.391235 2163.645996,1932.183960 2171.526367,1964.171631 
	C2177.970703,1990.329712 2194.727539,2007.847656 2219.690186,2017.404297 
	C2231.219482,2021.818115 2243.224365,2024.562866 2256.744629,2024.926392 
	C2257.897705,2025.080322 2259.050537,2025.234253 2261.895264,2025.583130 
	C2265.866943,2025.543213 2269.838379,2025.503296 2274.992920,2025.599854 
M1696.237915,1820.134277 
	C1688.290283,1820.826416 1680.318115,1821.310913 1672.399902,1822.250244 
	C1650.124634,1824.892822 1628.450195,1829.948975 1608.147339,1839.761963 
	C1578.653442,1854.017334 1558.201660,1875.952515 1550.981201,1908.685303 
	C1547.122925,1926.175659 1547.473633,1943.671143 1551.651733,1961.115967 
	C1558.600464,1990.128540 1576.421143,2009.306763 1604.508789,2018.630127 
	C1627.339355,2026.208496 1650.742065,2027.266846 1674.443237,2022.867554 
	C1699.312622,2018.251221 1720.786865,2006.692627 1740.529663,1991.392456 
	C1743.538574,1989.060547 1746.677979,1986.897095 1750.751099,1983.932129 
	C1752.797241,1996.273193 1754.562988,2006.922607 1756.333862,2017.603271 
	C1774.495850,2017.603271 1791.643799,2017.603271 1810.115112,2017.603271 
	C1810.115112,2012.671143 1810.114868,2008.429810 1810.114990,2004.188477 
	C1810.117554,1931.211670 1810.202515,1858.234497 1810.023315,1785.258179 
	C1809.999756,1775.650635 1809.389648,1765.912231 1807.729492,1756.466553 
	C1803.167480,1730.507812 1790.174438,1709.850220 1766.798950,1696.772705 
	C1749.369629,1687.021851 1730.473511,1682.087769 1709.753784,1681.193359 
	C1709.222290,1680.891357 1708.654663,1680.787964 1706.207642,1680.502930 
	C1695.477417,1680.621460 1684.747314,1680.739868 1673.110229,1680.873779 
	C1672.496582,1681.003052 1671.972534,1681.293823 1669.778564,1681.676514 
	C1633.604492,1683.540161 1599.477905,1693.174683 1565.904175,1707.868286 
	C1569.605591,1722.514526 1571.554688,1736.447510 1576.677734,1750.016602 
	C1607.708862,1739.245117 1638.216431,1731.756714 1671.500122,1731.432495 
	C1672.949829,1731.325928 1674.399536,1731.219482 1677.659180,1731.440552 
	C1688.363159,1731.468018 1698.885742,1732.592773 1709.036621,1736.284180 
	C1725.745972,1742.360596 1736.061890,1754.123657 1739.635620,1771.435425 
	C1742.750244,1786.523682 1742.081909,1801.829590 1740.956909,1817.093262 
	C1740.916992,1817.635498 1740.207397,1818.128540 1739.064697,1819.611938 
	C1726.562866,1819.611938 1713.307495,1819.611938 1699.536011,1819.406372 
	C1698.952881,1819.334595 1698.441284,1819.489746 1696.237915,1820.134277 
M1747.556763,1185.837402 
	C1739.166138,1182.751831 1730.327759,1180.507202 1722.510254,1176.344971 
	C1714.618042,1172.143188 1713.967773,1165.000122 1719.278076,1157.735718 
	C1721.179688,1155.134399 1723.397827,1152.764771 1725.471558,1150.289307 
	C1725.166992,1149.675293 1724.862427,1149.061279 1724.557861,1148.447388 
	C1719.367798,1150.181763 1714.160400,1151.866455 1708.991089,1153.660522 
	C1696.001587,1158.168457 1683.711548,1164.078857 1673.043457,1172.860718 
	C1658.956421,1184.457153 1657.865112,1199.618408 1670.494629,1212.734985 
	C1675.057007,1217.473389 1680.543701,1221.485596 1686.095581,1225.076050 
	C1701.043945,1234.743042 1717.645020,1240.812622 1734.558472,1245.979004 
	C1772.663086,1257.618042 1811.864868,1263.325928 1851.479004,1265.463013 
	C1902.109131,1268.194580 1952.602051,1266.137573 2002.792603,1258.038696 
	C2048.992920,1250.583740 2093.934326,1238.710327 2137.447510,1221.484009 
	C2140.644531,1220.218384 2143.644043,1218.453491 2148.764160,1215.914551 
	C2143.300537,1213.319824 2140.085938,1211.838135 2136.909912,1210.277466 
	C2117.498047,1200.737915 2097.930420,1191.494263 2078.785889,1181.445068 
	C2072.740479,1178.271729 2067.159668,1177.219604 2060.676514,1178.460571 
	C2048.583496,1180.775513 2036.464600,1182.973389 2024.318481,1184.990356 
	C1979.623291,1192.411743 1934.718872,1198.214966 1889.325806,1197.495483 
	C1862.072754,1197.063721 1834.804321,1195.470581 1807.623047,1193.362305 
	C1788.082031,1191.846313 1768.673950,1188.615967 1747.556763,1185.837402 
M2357.308105,811.597046 
	C2330.300049,807.065002 2304.190674,811.072510 2278.740723,820.274780 
	C2271.015869,823.068054 2264.229736,827.547852 2258.802734,837.022461 
	C2264.554688,835.508118 2268.326904,834.586670 2272.057861,833.520569 
	C2288.910400,828.704712 2305.894531,826.293213 2323.344482,830.070129 
	C2370.245361,840.221680 2409.047119,884.772888 2389.115967,942.988708 
	C2380.945557,966.852112 2366.321533,986.582336 2348.927490,1004.360107 
	C2330.682617,1023.007507 2310.390869,1039.273560 2288.299561,1053.118652 
	C2271.090576,1063.903687 2253.394287,1073.912354 2235.885010,1084.216187 
	C2232.350098,1086.296387 2228.157471,1087.766479 2228.724609,1094.607544 
	C2247.045166,1088.742920 2264.604980,1083.614624 2281.819824,1077.513428 
	C2323.517090,1062.735229 2363.076904,1043.788208 2397.416260,1015.317200 
	C2418.171143,998.109375 2436.029785,978.363892 2446.165283,952.978638 
	C2461.820312,913.770325 2456.629883,877.653748 2427.325684,846.470337 
	C2408.907471,826.870972 2385.484131,816.112061 2357.308105,811.597046 
z"/>
<path fill="#E02021" opacity="1.000000" stroke="none" 
	d="
M1670.070312,1731.123291 
	C1638.216431,1731.756714 1607.708862,1739.245117 1576.677734,1750.016602 
	C1571.554688,1736.447510 1569.605591,1722.514526 1565.904175,1707.868286 
	C1599.477905,1693.174683 1633.604492,1683.540161 1671.109131,1681.679688 
	C1673.042969,1681.556519 1673.568848,1681.281616 1674.017090,1680.858276 
	C1684.747314,1680.739868 1695.477417,1680.621460 1707.479492,1680.947510 
	C1709.283569,1681.664551 1709.847778,1681.781128 1710.444336,1681.741577 
	C1730.473511,1682.087769 1749.369629,1687.021851 1766.798950,1696.772705 
	C1790.174438,1709.850220 1803.167480,1730.507812 1807.729492,1756.466553 
	C1809.389648,1765.912231 1809.999756,1775.650635 1810.023315,1785.258179 
	C1810.202515,1858.234497 1810.117554,1931.211670 1810.114990,2004.188477 
	C1810.114868,2008.429810 1810.115112,2012.671143 1810.115112,2017.603271 
	C1791.643799,2017.603271 1774.495850,2017.603271 1756.333862,2017.603271 
	C1754.562988,2006.922607 1752.797241,1996.273193 1750.751099,1983.932129 
	C1746.677979,1986.897095 1743.538574,1989.060547 1740.529663,1991.392456 
	C1720.786865,2006.692627 1699.312622,2018.251221 1674.443237,2022.867554 
	C1650.742065,2027.266846 1627.339355,2026.208496 1604.508789,2018.630127 
	C1576.421143,2009.306763 1558.600464,1990.128540 1551.651733,1961.115967 
	C1547.473633,1943.671143 1547.122925,1926.175659 1550.981201,1908.685303 
	C1558.201660,1875.952515 1578.653442,1854.017334 1608.147339,1839.761963 
	C1628.450195,1829.948975 1650.124634,1824.892822 1672.399902,1822.250244 
	C1680.318115,1821.310913 1688.290283,1820.826416 1697.645386,1820.044189 
	C1699.385986,1819.839966 1699.718994,1819.725952 1700.052002,1819.611938 
	C1713.307495,1819.611938 1726.562866,1819.611938 1739.064697,1819.611938 
	C1740.207397,1818.128540 1740.916992,1817.635498 1740.956909,1817.093262 
	C1742.081909,1801.829590 1742.750244,1786.523682 1739.635620,1771.435425 
	C1736.061890,1754.123657 1725.745972,1742.360596 1709.036621,1736.284180 
	C1698.885742,1732.592773 1688.363159,1731.468018 1676.306396,1731.044189 
	C1673.325806,1730.806396 1671.697998,1730.964844 1670.070312,1731.123291 
M1695.519043,1863.412231 
	C1694.930054,1863.358154 1694.421265,1863.532837 1692.290527,1864.208374 
	C1678.962524,1865.009521 1665.846558,1867.035889 1653.256592,1871.613525 
	C1635.268311,1878.153564 1621.593384,1889.281006 1618.603394,1909.174438 
	C1617.192261,1918.563477 1617.232422,1928.590454 1618.870117,1937.932861 
	C1622.554565,1958.951172 1638.199951,1972.262817 1659.629395,1974.101562 
	C1670.989868,1975.076416 1682.170654,1974.051514 1693.102539,1970.357300 
	C1709.414673,1964.844604 1723.695679,1955.913452 1737.072754,1945.292725 
	C1740.504761,1942.567871 1741.755981,1939.312866 1741.722290,1934.950684 
	C1741.557861,1913.653931 1741.673706,1892.354858 1741.581543,1871.057129 
	C1741.571899,1868.859985 1740.841187,1866.665894 1740.288330,1863.602905 
	C1725.255371,1863.602905 1710.649536,1863.602905 1695.519043,1863.412231 
z"/>
<path fill="#E01F21" opacity="1.000000" stroke="none" 
	d="
M2330.298828,1681.823853 
	C2350.970459,1682.383179 2370.529297,1687.383179 2388.121582,1698.248169 
	C2415.355713,1715.067871 2427.072021,1740.754517 2428.197510,1773.771606 
	C2428.042969,1840.547607 2428.011963,1905.498901 2428.083984,1970.449951 
	C2428.088379,1974.393188 2428.911865,1978.335571 2429.354004,1982.278320 
	C2429.381592,1983.054321 2429.409180,1983.830444 2429.090820,1985.967773 
	C2428.443115,1997.513062 2428.141602,2007.696899 2427.840332,2017.880859 
	C2410.631592,2017.880859 2393.423096,2017.880859 2375.416504,2017.880859 
	C2373.559326,2006.929443 2371.750732,1996.264526 2369.641357,1983.826904 
	C2365.390137,1986.980957 2362.050049,1989.374268 2358.800049,1991.884521 
	C2339.100342,2007.099609 2317.625977,2018.561157 2292.843506,2022.936768 
	C2288.616943,2023.682983 2284.296387,2023.897705 2278.563965,2024.327393 
	C2276.009033,2024.685547 2274.909424,2025.074463 2273.810059,2025.463379 
	C2269.838379,2025.503296 2265.866943,2025.543213 2260.560547,2025.140991 
	C2258.057861,2024.580933 2256.889893,2024.463013 2255.721680,2024.344971 
	C2243.224365,2024.562866 2231.219482,2021.818115 2219.690186,2017.404297 
	C2194.727539,2007.847656 2177.970703,1990.329712 2171.526367,1964.171631 
	C2163.645996,1932.183960 2165.855469,1901.391235 2185.444336,1873.555298 
	C2197.267578,1856.754028 2213.551514,1845.437378 2232.218506,1837.418091 
	C2262.684326,1824.330200 2294.898682,1820.413086 2327.667480,1819.696533 
	C2337.921143,1819.472290 2348.184082,1819.661499 2357.656006,1819.661499 
	C2358.838379,1818.207275 2359.596924,1817.709106 2359.597412,1817.209717 
	C2359.614502,1803.275024 2360.881592,1789.179443 2359.217285,1775.440430 
	C2356.232666,1750.800049 2339.579834,1736.205078 2312.651855,1732.441284 
	C2307.729980,1731.753540 2302.703369,1731.815796 2296.296875,1731.113037 
	C2292.578857,1730.879272 2290.289307,1731.064087 2287.999756,1731.249023 
	C2283.920410,1731.374512 2279.840820,1731.500122 2274.628418,1731.468994 
	C2272.903076,1731.246216 2272.396484,1731.422607 2271.975342,1731.841553 
	C2258.922119,1734.136597 2245.745605,1735.897705 2232.851074,1738.878906 
	C2220.333740,1741.772827 2208.106201,1745.919189 2194.779297,1749.798462 
	C2191.425781,1735.698486 2188.234131,1722.278320 2184.823242,1707.936035 
	C2218.314697,1693.210571 2252.142090,1683.757446 2289.174316,1681.806152 
	C2290.928711,1681.873169 2291.375488,1681.697754 2291.762939,1681.371094 
	C2303.342773,1681.161377 2314.922607,1680.951660 2327.704834,1681.254639 
	C2328.907227,1681.767456 2329.598389,1681.906250 2329.598389,1681.906250 
	C2329.598389,1681.906250 2330.298828,1681.823853 2330.298828,1681.823853 
M2312.273682,1864.157227 
	C2295.594238,1865.215454 2279.262451,1867.814819 2263.984863,1875.071411 
	C2247.946289,1882.689575 2238.900146,1895.529419 2236.702148,1912.941528 
	C2235.876953,1919.477661 2235.862305,1926.286743 2236.661865,1932.826782 
	C2239.431396,1955.487305 2253.487549,1970.605347 2275.357422,1973.500000 
	C2284.104004,1974.657593 2293.370605,1974.284668 2302.086914,1972.785522 
	C2321.559326,1969.436646 2337.849609,1959.073242 2353.422119,1947.382202 
	C2358.424072,1943.627197 2360.594971,1939.556030 2360.469238,1933.168335 
	C2360.076904,1913.219849 2360.356689,1893.258667 2360.287842,1873.302734 
	C2360.277832,1870.430054 2359.782959,1867.558960 2359.401855,1863.513306 
	C2344.508789,1863.513306 2330.281250,1863.513306 2315.524658,1863.304810 
	C2314.924072,1863.239136 2314.407227,1863.416138 2312.273682,1864.157227 
z"/>
<path fill="#DF2022" opacity="1.000000" stroke="none" 
	d="
M1806.687744,578.046997 
	C1806.641968,584.770630 1806.596313,591.494263 1806.722900,599.552795 
	C1807.022217,601.480286 1807.312744,601.977478 1807.766724,602.379150 
	C1808.271729,620.654175 1814.342285,637.498840 1821.425537,653.995544 
	C1832.354370,679.448547 1847.875000,702.224060 1863.274902,725.091125 
	C1880.505737,750.676697 1897.380859,776.505005 1914.124023,802.413025 
	C1917.312256,807.346313 1919.165283,813.142517 1921.468506,819.257324 
	C1921.302490,819.973999 1921.347534,819.881836 1921.347534,819.881836 
	C1879.944580,782.687195 1839.278076,744.734375 1802.946167,702.445129 
	C1781.841309,677.879883 1762.526978,652.044495 1748.337036,622.687073 
	C1736.686890,598.584412 1729.895020,573.533569 1731.629150,546.493347 
	C1733.149902,522.777527 1742.282837,502.023010 1755.669800,482.853363 
	C1775.654663,454.235565 1799.912720,429.524872 1826.709595,407.415039 
	C1860.357056,379.652832 1894.703613,352.739380 1928.621704,325.303223 
	C1962.071411,298.246155 1994.535767,270.138214 2021.320557,236.133865 
	C2045.800293,205.055588 2063.772461,170.933411 2070.894775,131.597595 
	C2076.371826,101.348053 2075.178223,71.303589 2068.886963,41.342182 
	C2068.145996,37.812984 2067.506592,34.262402 2067.704590,30.417660 
	C2089.035889,53.658775 2099.454346,81.661751 2103.914307,113.712952 
	C2104.155762,115.388351 2104.276855,115.721436 2104.397949,116.054527 
	C2104.419434,118.830635 2104.440918,121.606743 2104.457031,126.064667 
	C2104.569336,131.760788 2104.687744,135.775101 2104.805908,139.789398 
	C2102.840576,194.623337 2079.553711,241.178619 2048.262695,284.507263 
	C2017.429199,327.202545 1979.824951,363.426117 1939.254395,396.663849 
	C1915.552246,416.082062 1891.435669,434.992981 1870.253174,457.263794 
	C1847.831177,480.837982 1827.811523,506.173584 1816.589966,537.111450 
	C1812.325684,548.868103 1810.554932,561.529297 1807.313721,574.969666 
	C1806.614014,576.748169 1806.516724,577.376831 1806.687744,578.046997 
z"/>
<path fill="#E02021" opacity="1.000000" stroke="none" 
	d="
M1955.930786,2018.631592 
	C1951.149780,2018.624634 1950.269043,2015.121582 1949.155762,2011.476074 
	C1941.687256,1987.020508 1934.066284,1962.611450 1926.553223,1938.169312 
	C1902.062256,1858.493164 1877.594360,1778.810059 1853.128174,1699.126343 
	C1852.154175,1695.954224 1851.285767,1692.749512 1850.676025,1688.595337 
	C1851.407104,1687.331299 1851.771362,1686.972046 1852.076538,1686.552979 
	C1875.681152,1686.552979 1899.285767,1686.552979 1923.590088,1686.552979 
	C1926.136230,1694.329956 1928.699951,1701.833862 1931.053833,1709.402954 
	C1949.127075,1767.518921 1967.424927,1825.567261 1985.042603,1883.821167 
	C1990.325806,1901.290039 1993.664185,1919.346069 1997.924561,1937.125732 
	C1998.609619,1939.984619 1999.458984,1942.804199 2000.343628,1946.050171 
	C2014.685547,1927.333618 2052.781494,1778.658691 2066.326416,1690.450928 
	C2067.292725,1688.428833 2067.756104,1687.573730 2068.219482,1686.718628 
	C2091.129395,1686.718628 2114.039062,1686.718628 2138.079346,1686.718628 
	C2137.726807,1690.801270 2137.723877,1694.031738 2137.138184,1697.152954 
	C2119.959961,1788.700684 2095.191650,1878.074829 2060.102295,1964.452637 
	C2053.586670,1980.491577 2046.156738,1996.157227 2039.509033,2012.144897 
	C2037.514404,2016.942017 2034.553101,2018.871094 2028.323364,2018.444214 
	C2026.644409,2018.518921 2026.287964,2018.576294 2025.931519,2018.633789 
	C2022.539673,2018.569946 2019.147827,2018.506226 2014.378418,2018.452393 
	C2012.644287,2018.519409 2012.287842,2018.576538 2011.931519,2018.633789 
	C2008.539673,2018.569946 2005.147827,2018.506226 2000.378418,2018.452393 
	C1998.644287,2018.519409 1998.287842,2018.576538 1997.931519,2018.633789 
	C1994.539673,2018.570068 1991.147827,2018.506348 1986.378418,2018.452393 
	C1984.644287,2018.519409 1984.287842,2018.576538 1983.931519,2018.633789 
	C1980.539673,2018.570068 1977.147827,2018.506348 1972.378418,2018.452393 
	C1970.644287,2018.519409 1970.287842,2018.576538 1969.931519,2018.633789 
	C1966.539673,2018.569946 1963.147827,2018.506104 1958.378174,2018.451904 
	C1956.643799,2018.518188 1956.287354,2018.574829 1955.930786,2018.631592 
z"/>
<path fill="#0E6EB5" opacity="1.000000" stroke="none" 
	d="
M2368.938721,1266.721924 
	C2373.169922,1269.351318 2377.705811,1271.598267 2381.575195,1274.681763 
	C2393.238281,1283.976562 2394.527344,1295.189087 2385.472412,1306.982910 
	C2377.989014,1316.730103 2367.706543,1322.974365 2357.117676,1328.668579 
	C2330.231445,1343.126465 2301.349365,1352.295166 2272.065186,1360.338989 
	C2225.726562,1373.067261 2178.596680,1382.035889 2130.972900,1387.934570 
	C2090.029785,1393.005981 2048.915771,1396.861084 2007.797363,1400.297485 
	C1981.282959,1402.513550 1954.624146,1403.002563 1926.736572,1404.162598 
	C1924.752075,1404.165039 1924.061035,1404.270142 1923.370117,1404.375366 
	C1908.140869,1404.794189 1892.911743,1405.213135 1875.972656,1405.357178 
	C1859.539795,1405.229492 1844.817017,1405.376709 1830.094116,1405.523926 
	C1816.605957,1405.501465 1803.117676,1405.478882 1788.066895,1405.072266 
	C1784.264526,1404.508911 1782.024780,1404.329468 1779.785034,1404.150146 
	C1752.195923,1402.981689 1724.592285,1402.079346 1697.022461,1400.560425 
	C1675.095337,1399.352295 1653.173950,1397.768311 1631.312500,1395.692139 
	C1566.680664,1389.553589 1502.139526,1382.517944 1438.439087,1369.625244 
	C1426.830200,1367.275513 1415.699707,1362.287598 1404.586182,1357.913330 
	C1400.699341,1356.383545 1397.176636,1353.400879 1394.101562,1350.443359 
	C1387.016479,1343.629517 1385.334839,1335.377686 1390.104004,1326.794312 
	C1393.107544,1321.388306 1397.070557,1315.920776 1401.943604,1312.270264 
	C1412.564697,1304.313965 1423.461060,1296.338623 1435.274780,1290.430542 
	C1477.362793,1269.382812 1521.854736,1255.846191 1568.910522,1252.145508 
	C1580.727051,1251.216431 1592.783813,1252.910522 1604.692993,1253.864258 
	C1608.140015,1254.140503 1611.457397,1256.036011 1614.841187,1259.160522 
	C1612.530273,1259.558350 1610.234009,1260.130737 1607.906128,1260.327759 
	C1568.596558,1263.656494 1531.313354,1274.001221 1496.482422,1292.676514 
	C1492.417847,1294.855835 1488.506470,1297.628784 1485.177246,1300.810059 
	C1477.425293,1308.217651 1477.732300,1316.074341 1486.955444,1321.335083 
	C1495.550049,1326.237427 1504.968506,1329.996826 1514.416016,1333.045898 
	C1543.020874,1342.277954 1572.448730,1348.243652 1602.251465,1351.620483 
	C1639.601562,1355.852173 1677.054077,1359.337769 1714.533691,1362.218506 
	C1741.724487,1364.308350 1769.031006,1364.892090 1797.585205,1366.398926 
	C1799.904053,1366.591797 1800.923706,1366.533325 1801.943359,1366.474976 
	C1840.698242,1366.448486 1879.453003,1366.421997 1919.694702,1366.618652 
	C1923.408325,1366.690552 1925.635132,1366.539551 1927.861938,1366.388428 
	C1951.479004,1365.483276 1975.124268,1365.035645 1998.706787,1363.573486 
	C2041.547729,1360.917358 2084.411377,1358.320801 2127.151611,1354.442749 
	C2161.943359,1351.285889 2196.648438,1346.858154 2231.243408,1341.946655 
	C2262.569092,1337.499268 2293.718994,1331.660034 2323.824707,1321.551880 
	C2332.944580,1318.489746 2341.747314,1314.394653 2350.484619,1310.320068 
	C2354.353516,1308.515503 2357.801514,1305.723755 2361.260742,1303.139526 
	C2372.740967,1294.562988 2375.759766,1281.420532 2368.320312,1268.589111 
	C2368.522949,1267.248901 2368.730957,1266.985474 2368.938721,1266.721924 
z"/>
<path fill="#E11F21" opacity="1.000000" stroke="none" 
	d="
M1498.126221,1988.243164 
	C1498.879883,2048.695068 1472.496338,2093.635254 1420.343628,2123.604736 
	C1410.884644,2129.040039 1400.787842,2133.365479 1390.102295,2138.639160 
	C1378.674805,2125.237305 1367.770386,2112.449219 1356.345825,2099.051025 
	C1359.181641,2097.010986 1361.189575,2095.391357 1363.360840,2094.032959 
	C1377.825439,2084.983643 1391.041626,2074.554932 1402.194580,2061.463623 
	C1414.479126,2047.044067 1421.604248,2030.470947 1423.762207,2011.884399 
	C1425.215820,1999.364868 1425.488525,1986.708252 1426.574707,1972.522705 
	C1427.007690,1967.964478 1427.155396,1964.996826 1427.302979,1962.029053 
	C1427.422119,1957.368530 1427.644165,1952.708130 1427.644897,1948.047607 
	C1427.664062,1826.721924 1427.660034,1705.396240 1427.660034,1584.070557 
	C1427.660034,1579.441895 1427.660156,1574.813110 1427.660156,1569.048950 
	C1439.595825,1567.641602 1450.836426,1568.507568 1462.007202,1568.371094 
	C1473.336914,1568.232910 1484.670410,1568.416260 1497.066406,1569.053833 
	C1498.621948,1570.474854 1499.113525,1571.300781 1499.605225,1572.126709 
	C1499.687866,1573.456421 1499.842773,1574.786133 1499.842651,1576.115845 
	C1499.829590,1702.096436 1499.804810,1828.077148 1499.551758,1955.239136 
	C1499.166748,1956.994019 1499.226196,1957.543213 1499.500977,1958.068237 
	C1499.491211,1966.140991 1499.481445,1974.213623 1498.986206,1983.666870 
	C1498.375854,1986.112671 1498.251099,1987.177856 1498.126221,1988.243164 
z"/>
<path fill="#E02021" opacity="1.000000" stroke="none" 
	d="
M1925.790527,561.618103 
	C1926.942749,539.711670 1935.366333,520.205994 1946.267944,501.710541 
	C1963.119019,473.121674 1986.586792,450.526520 2012.717896,430.563904 
	C2054.352051,398.757721 2100.542480,375.046265 2149.066406,355.953552 
	C2176.612305,345.115051 2204.915283,336.197784 2232.904785,326.493896 
	C2235.618896,325.552826 2238.526123,325.168060 2242.030518,326.005402 
	C2239.379883,327.722931 2236.787598,329.539459 2234.069580,331.143127 
	C2191.581055,356.212646 2149.646973,382.148254 2110.041504,411.642609 
	C2081.403076,432.969604 2053.619141,455.303894 2031.699951,483.912292 
	C2019.836914,499.395630 2010.060669,515.937378 2007.319824,537.002563 
	C2006.611938,538.747192 2006.514648,539.376343 2006.686279,540.046997 
	C2006.619995,544.762512 2006.553589,549.478088 2006.634888,555.526733 
	C2006.937866,557.481689 2007.262695,557.996399 2007.757202,558.404053 
	C2008.416260,572.772400 2013.676392,585.901978 2021.041748,597.697632 
	C2035.113525,620.233459 2050.312012,642.071960 2065.256104,664.054993 
	C2075.253662,678.761841 2083.795898,694.019165 2086.258301,713.237793 
	C2086.393311,715.080872 2086.668701,715.594727 2087.095215,716.027649 
	C2090.749268,746.724426 2079.654785,772.892273 2061.791260,796.756470 
	C2040.316895,825.444031 2012.531006,846.994446 1982.315552,865.672791 
	C1980.617554,866.722412 1978.866455,867.686035 1976.060425,868.828125 
	C1974.760864,868.636719 1974.541016,868.306885 1974.321289,867.976990 
	C1992.406860,850.147888 2006.655029,829.975769 2012.501831,804.781677 
	C2013.470703,800.606079 2013.711182,796.261414 2014.651123,790.528625 
	C2014.758545,785.263062 2014.502930,781.463806 2014.247314,777.664490 
	C2013.581909,756.319946 2003.663086,738.904114 1990.901489,722.698486 
	C1981.854858,711.210327 1972.288696,700.090698 1963.851929,688.171387 
	C1946.613770,663.817383 1933.383301,637.484314 1927.357544,607.968140 
	C1926.563477,604.078491 1926.229858,600.094849 1925.679443,594.864014 
	C1925.550293,592.968750 1925.276245,592.441162 1924.854126,591.990540 
	C1924.740723,583.255249 1924.627197,574.520020 1924.978516,564.532715 
	C1925.715454,562.759216 1925.831177,562.205017 1925.790527,561.618103 
z"/>
<path fill="#0E6EB5" opacity="1.000000" stroke="none" 
	d="
M1748.381592,1185.993896 
	C1768.673950,1188.615967 1788.082031,1191.846313 1807.623047,1193.362305 
	C1834.804321,1195.470581 1862.072754,1197.063721 1889.325806,1197.495483 
	C1934.718872,1198.214966 1979.623291,1192.411743 2024.318481,1184.990356 
	C2036.464600,1182.973389 2048.583496,1180.775513 2060.676514,1178.460571 
	C2067.159668,1177.219604 2072.740479,1178.271729 2078.785889,1181.445068 
	C2097.930420,1191.494263 2117.498047,1200.737915 2136.909912,1210.277466 
	C2140.085938,1211.838135 2143.300537,1213.319824 2148.764160,1215.914551 
	C2143.644043,1218.453491 2140.644531,1220.218384 2137.447510,1221.484009 
	C2093.934326,1238.710327 2048.992920,1250.583740 2002.792603,1258.038696 
	C1952.602051,1266.137573 1902.109131,1268.194580 1851.479004,1265.463013 
	C1811.864868,1263.325928 1772.663086,1257.618042 1734.558472,1245.979004 
	C1717.645020,1240.812622 1701.043945,1234.743042 1686.095581,1225.076050 
	C1680.543701,1221.485596 1675.057007,1217.473389 1670.494629,1212.734985 
	C1657.865112,1199.618408 1658.956421,1184.457153 1673.043457,1172.860718 
	C1683.711548,1164.078857 1696.001587,1158.168457 1708.991089,1153.660522 
	C1714.160400,1151.866455 1719.367798,1150.181763 1724.557861,1148.447388 
	C1724.862427,1149.061279 1725.166992,1149.675293 1725.471558,1150.289307 
	C1723.397827,1152.764771 1721.179688,1155.134399 1719.278076,1157.735718 
	C1713.967773,1165.000122 1714.618042,1172.143188 1722.510254,1176.344971 
	C1730.327759,1180.507202 1739.166138,1182.751831 1748.381592,1185.993896 
z"/>
<path fill="#0E6EB5" opacity="1.000000" stroke="none" 
	d="
M1735.938232,914.479065 
	C1746.760864,914.500305 1757.583374,914.521545 1770.104248,914.889038 
	C1782.407349,915.139832 1793.012329,915.044250 1803.617188,914.948730 
	C1805.882812,914.852783 1808.148315,914.756897 1811.492432,914.776062 
	C1813.071533,914.958130 1813.540771,914.865784 1813.978882,914.614136 
	C1826.058960,914.538025 1838.139038,914.461975 1851.539795,914.538269 
	C1853.885986,914.560120 1854.911499,914.429626 1855.936890,914.299072 
	C1876.214600,913.423340 1896.518921,912.942993 1916.764526,911.588623 
	C1957.585449,908.857910 1998.494995,906.764587 2039.146851,902.364868 
	C2092.067627,896.637329 2144.777832,888.956543 2197.567383,882.031067 
	C2206.098633,880.911804 2214.571777,879.349792 2223.700439,879.184143 
	C2222.389648,880.170349 2221.177979,881.338074 2219.753174,882.115051 
	C2203.390137,891.038208 2186.862549,899.669128 2170.653076,908.861572 
	C2159.348633,915.272461 2146.764404,917.055420 2134.491455,919.759155 
	C2084.691895,930.730164 2034.317627,938.119263 1983.513916,942.420471 
	C1956.334595,944.721558 1929.120361,946.683960 1901.893311,948.326721 
	C1883.964600,949.408508 1865.984985,949.648193 1846.432739,950.147095 
	C1842.677734,950.367615 1840.518188,950.705994 1838.358643,951.044312 
	C1811.484253,951.208191 1784.609863,951.372070 1756.087646,951.204895 
	C1750.899902,950.636597 1747.359741,950.399292 1743.819702,950.162048 
	C1703.791016,950.621521 1663.976196,947.346863 1624.252075,942.936646 
	C1596.436279,939.848633 1568.704834,935.987183 1541.791992,927.925842 
	C1534.475708,925.734375 1527.349609,922.826843 1520.300781,919.857483 
	C1516.968506,918.453796 1513.762573,916.450745 1510.952026,914.163147 
	C1501.715454,906.645264 1501.212036,898.517273 1510.145996,890.648987 
	C1515.327271,886.085632 1521.320557,882.143799 1527.522095,879.085815 
	C1585.741699,850.377075 1646.965942,831.819275 1711.728149,825.638489 
	C1722.652832,824.595764 1733.647339,824.260498 1744.615479,823.718323 
	C1746.796875,823.610474 1749.005371,824.050903 1751.385742,825.796692 
	C1743.808105,827.862854 1736.215942,829.876953 1728.655518,832.004150 
	C1694.322388,841.664490 1659.968384,851.287781 1628.097046,867.835022 
	C1623.978149,869.973511 1619.889282,872.333130 1616.230225,875.163940 
	C1604.775391,884.026123 1605.703613,892.052368 1619.064697,898.065247 
	C1624.793335,900.643250 1630.904663,902.927551 1637.068481,903.879517 
	C1657.447998,907.026917 1677.900146,909.771118 1698.386230,912.132629 
	C1708.947754,913.350098 1719.640381,913.431030 1731.548218,914.309204 
	C1733.861206,914.554993 1734.899780,914.517029 1735.938232,914.479065 
z"/>
<path fill="#0E6EB5" opacity="1.000000" stroke="none" 
	d="
M1904.164673,1105.196045 
	C1878.659912,1105.282227 1853.155151,1105.368408 1826.147949,1105.081909 
	C1823.025391,1104.522095 1821.405273,1104.335083 1819.785156,1104.147949 
	C1787.722412,1104.219116 1756.035400,1100.207886 1724.505127,1094.941040 
	C1701.822388,1091.152100 1679.334351,1086.271240 1658.061401,1077.212769 
	C1650.131592,1073.836182 1642.341797,1069.893677 1635.074585,1065.284546 
	C1630.409180,1062.325684 1626.402832,1058.019531 1622.835205,1053.709595 
	C1617.410767,1047.156250 1617.028564,1039.650879 1621.218628,1032.257080 
	C1623.167847,1028.817261 1625.402832,1025.296631 1628.288452,1022.669739 
	C1646.150146,1006.409790 1668.145630,998.162170 1691.401733,991.572632 
	C1690.212769,993.288452 1689.074219,995.042114 1687.823364,996.711609 
	C1685.830444,999.371155 1683.509033,1001.817810 1681.769897,1004.628723 
	C1673.926880,1017.306458 1676.865479,1027.517700 1690.225830,1034.224731 
	C1701.740601,1040.005371 1714.291016,1042.244995 1726.865112,1043.371582 
	C1757.014771,1046.073242 1787.198853,1048.631958 1817.423950,1050.174316 
	C1842.670288,1051.462769 1868.001587,1051.826904 1893.282471,1051.526245 
	C1930.902588,1051.078857 1968.416992,1048.133545 2005.660278,1042.814087 
	C2039.916748,1037.921387 2074.032471,1032.043945 2108.207520,1026.582275 
	C2112.542236,1025.889404 2116.591064,1025.401123 2120.363037,1028.845581 
	C2134.541504,1041.793457 2151.035889,1051.085327 2168.540771,1058.722046 
	C2169.693848,1059.225098 2170.642822,1060.195801 2173.068604,1061.945679 
	C2168.990234,1063.483276 2166.131592,1064.828979 2163.129639,1065.652466 
	C2118.450195,1077.911987 2073.269287,1087.975708 2027.292114,1093.744141 
	C1993.639526,1097.966309 1959.801025,1100.715942 1926.033447,1103.999146 
	C1921.409912,1104.448608 1916.716919,1104.185913 1910.509033,1104.173462 
	C1907.362793,1104.461304 1905.763794,1104.828613 1904.164673,1105.196045 
z"/>
<path fill="#0E6EB4" opacity="1.000000" stroke="none" 
	d="
M1893.787476,1474.160645 
	C1858.528076,1472.959351 1823.229126,1472.430786 1788.021362,1470.354248 
	C1757.143066,1468.532959 1726.292114,1465.616211 1695.567261,1462.007324 
	C1663.802368,1458.276123 1632.284180,1452.722168 1601.927002,1442.109741 
	C1595.761963,1439.954468 1589.781250,1437.271851 1583.715576,1434.832275 
	C1583.901123,1434.088135 1584.086670,1433.343994 1584.272095,1432.599976 
	C1589.608887,1433.200439 1594.942383,1433.830933 1600.282837,1434.396484 
	C1638.007568,1438.392334 1675.686523,1442.912964 1713.470703,1446.235474 
	C1770.229126,1451.226318 1827.171875,1452.592773 1884.125366,1452.163818 
	C1919.753418,1451.895386 1955.411133,1451.212036 1990.987793,1449.391235 
	C2052.829102,1446.225830 2114.516602,1440.905029 2175.813477,1431.852051 
	C2237.818359,1422.694458 2299.338867,1411.192871 2359.051514,1391.615601 
	C2384.102295,1383.402466 2408.711670,1373.981567 2430.867188,1359.359375 
	C2438.805176,1354.120483 2446.035889,1347.810059 2455.100830,1340.823486 
	C2453.585205,1346.426392 2452.856689,1350.933228 2451.164795,1355.043579 
	C2445.434814,1368.963379 2435.623047,1379.718384 2423.947510,1388.937500 
	C2406.492920,1402.720337 2386.706299,1412.183472 2366.122803,1420.146729 
	C2323.964600,1436.456787 2280.049072,1446.033203 2235.648926,1453.474731 
	C2187.024414,1461.624268 2138.042969,1467.097778 2088.826172,1469.853638 
	C2051.277588,1471.956055 2013.660278,1472.836426 1974.244263,1474.098389 
	C1965.741211,1474.310425 1959.067261,1474.684204 1952.393433,1475.057983 
	C1951.391235,1475.136719 1950.389038,1475.215576 1948.406006,1475.207397 
	C1946.929077,1475.054810 1946.463501,1475.145630 1946.028076,1475.392700 
	C1935.924927,1475.442993 1925.821777,1475.493286 1914.029785,1475.211426 
	C1906.156372,1474.639648 1899.971924,1474.400146 1893.787476,1474.160645 
z"/>
<path fill="#0E6EB5" opacity="1.000000" stroke="none" 
	d="
M2358.177246,811.692261 
	C2385.484131,816.112061 2408.907471,826.870972 2427.325684,846.470337 
	C2456.629883,877.653748 2461.820312,913.770325 2446.165283,952.978638 
	C2436.029785,978.363892 2418.171143,998.109375 2397.416260,1015.317200 
	C2363.076904,1043.788208 2323.517090,1062.735229 2281.819824,1077.513428 
	C2264.604980,1083.614624 2247.045166,1088.742920 2228.724609,1094.607544 
	C2228.157471,1087.766479 2232.350098,1086.296387 2235.885010,1084.216187 
	C2253.394287,1073.912354 2271.090576,1063.903687 2288.299561,1053.118652 
	C2310.390869,1039.273560 2330.682617,1023.007507 2348.927490,1004.360107 
	C2366.321533,986.582336 2380.945557,966.852112 2389.115967,942.988708 
	C2409.047119,884.772888 2370.245361,840.221680 2323.344482,830.070129 
	C2305.894531,826.293213 2288.910400,828.704712 2272.057861,833.520569 
	C2268.326904,834.586670 2264.554688,835.508118 2258.802734,837.022461 
	C2264.229736,827.547852 2271.015869,823.068054 2278.740723,820.274780 
	C2304.190674,811.072510 2330.300049,807.065002 2358.177246,811.692261 
z"/>
<path fill="#DF2022" opacity="1.000000" stroke="none" 
	d="
M2484.065186,1686.994751 
	C2485.545654,1686.848755 2487.026367,1686.702881 2489.324707,1687.025879 
	C2490.354004,1687.806152 2490.644287,1687.999268 2491.012939,1688.074341 
	C2492.817383,1704.920288 2492.309082,1709.340820 2486.926270,1714.637573 
	C2486.388916,1711.088257 2485.988770,1708.445679 2485.678711,1704.464844 
	C2485.601807,1701.777100 2485.434814,1700.427856 2485.267822,1699.078491 
	C2484.817383,1699.045776 2484.366943,1699.013184 2483.916504,1698.980469 
	C2483.309570,1700.666992 2482.702393,1702.353516 2482.095459,1704.040161 
	C2480.434570,1707.365356 2478.773682,1710.690674 2475.990723,1716.262573 
	C2473.453369,1711.255737 2471.951904,1708.293091 2470.165527,1704.157227 
	C2469.027344,1701.720947 2468.174805,1700.457886 2466.032959,1697.285034 
	C2466.332031,1701.196045 2466.446289,1702.691040 2466.560791,1704.186035 
	C2466.319336,1707.088013 2466.077881,1709.990112 2465.668701,1714.910522 
	C2463.222412,1712.944092 2460.768066,1711.923706 2460.695312,1710.754761 
	C2460.287842,1704.230225 2460.408203,1697.669312 2460.447510,1691.121460 
	C2460.471191,1687.141602 2463.011719,1686.236328 2467.302979,1687.038940 
	C2468.429443,1687.816162 2468.739502,1688.008423 2469.121826,1688.084351 
	C2471.001709,1692.230713 2472.881592,1696.376953 2474.952148,1700.943237 
	C2480.219482,1698.372559 2479.619873,1692.902222 2482.709961,1688.601318 
	C2483.697998,1687.662720 2483.935547,1687.373047 2484.065186,1686.994751 
z"/>
<path fill="#A23E40" opacity="1.000000" stroke="none" 
	d="
M2429.532227,1981.334961 
	C2428.911865,1978.335571 2428.088379,1974.393188 2428.083984,1970.449951 
	C2428.011963,1905.498901 2428.042969,1840.547607 2428.201904,1774.648926 
	C2428.898193,1777.298584 2429.914551,1780.895386 2429.918701,1784.493286 
	C2429.990234,1848.795654 2429.940430,1913.098267 2429.906006,1977.400757 
	C2429.905518,1978.397705 2429.778564,1979.394775 2429.532227,1981.334961 
z"/>
<path fill="#C62C34" opacity="1.000000" stroke="none" 
	d="
M2447.854004,1713.772339 
	C2443.995117,1714.791870 2442.174316,1713.183838 2442.160400,1709.315430 
	C2442.142578,1704.355835 2442.156006,1699.396240 2442.156006,1693.977051 
	C2439.584229,1692.604614 2437.192383,1691.328003 2434.506104,1689.894531 
	C2435.429688,1688.526855 2435.888672,1687.157227 2436.458740,1687.109131 
	C2442.593994,1686.592896 2448.746826,1686.284912 2454.459961,1685.945801 
	C2456.341064,1690.545654 2455.035156,1692.043701 2450.414307,1692.687744 
	C2448.836914,1700.199219 2448.345459,1706.985718 2447.854004,1713.772339 
z"/>
<path fill="#1F6D99" opacity="1.000000" stroke="none" 
	d="
M1831.011963,1405.664429 
	C1844.817017,1405.376709 1859.539795,1405.229492 1875.022705,1405.311768 
	C1861.165039,1405.629028 1846.547363,1405.716919 1831.011963,1405.664429 
z"/>
<path fill="#1F6D99" opacity="1.000000" stroke="none" 
	d="
M1802.732056,914.806641 
	C1793.012329,915.044250 1782.407349,915.139832 1771.049072,915.028259 
	C1780.812744,914.768921 1791.329834,914.716736 1802.732056,914.806641 
z"/>
<path fill="#A23E40" opacity="1.000000" stroke="none" 
	d="
M2428.386230,2017.249756 
	C2428.141602,2007.696899 2428.443115,1997.513062 2429.046387,1986.548828 
	C2429.209961,1996.052002 2429.071289,2006.335327 2428.386230,2017.249756 
z"/>
<path fill="#A23E40" opacity="1.000000" stroke="none" 
	d="
M2448.288574,1713.101562 
	C2448.345459,1706.985718 2448.836914,1700.199219 2449.777832,1692.735596 
	C2449.725586,1698.849243 2449.224121,1705.640015 2448.288574,1713.101562 
z"/>
<path fill="#1F6D99" opacity="1.000000" stroke="none" 
	d="
M1953.239258,1475.178955 
	C1959.067261,1474.684204 1965.741211,1474.310425 1973.322754,1474.041748 
	C1967.515503,1474.531128 1960.800293,1474.915527 1953.239258,1475.178955 
z"/>
<path fill="#1F6D99" opacity="1.000000" stroke="none" 
	d="
M1894.575806,1474.345459 
	C1899.971924,1474.400146 1906.156372,1474.639648 1913.089844,1475.118896 
	C1907.680542,1475.082397 1901.522339,1474.806274 1894.575806,1474.345459 
z"/>
<path fill="#6F5B41" opacity="1.000000" stroke="none" 
	d="
M2105.091309,139.156204 
	C2104.687744,135.775101 2104.569336,131.760788 2104.578125,126.888947 
	C2104.928955,130.195282 2105.152832,134.359146 2105.091309,139.156204 
z"/>
<path fill="#1F6D99" opacity="1.000000" stroke="none" 
	d="
M1744.547852,950.366089 
	C1747.359741,950.399292 1750.899902,950.636597 1755.145020,951.112427 
	C1752.325439,951.090759 1748.800781,950.830444 1744.547852,950.366089 
z"/>
<path fill="#6F5B41" opacity="1.000000" stroke="none" 
	d="
M2467.109375,1704.184570 
	C2466.446289,1702.691040 2466.332031,1701.196045 2466.032959,1697.285034 
	C2468.174805,1700.457886 2469.027344,1701.720947 2469.864258,1703.522949 
	C2469.118164,1704.102417 2468.387939,1704.142700 2467.109375,1704.184570 
z"/>
<path fill="#6F5B41" opacity="1.000000" stroke="none" 
	d="
M2482.652344,1704.068604 
	C2482.702393,1702.353516 2483.309570,1700.666992 2483.916504,1698.980469 
	C2484.366943,1699.013184 2484.817383,1699.045776 2485.267822,1699.078491 
	C2485.434814,1700.427856 2485.601807,1701.777100 2485.603027,1703.656982 
	C2484.694336,1704.157471 2483.951904,1704.127319 2482.652344,1704.068604 
z"/>
<path fill="#6F5B41" opacity="1.000000" stroke="none" 
	d="
M2014.146973,778.564636 
	C2014.502930,781.463806 2014.758545,785.263062 2014.631348,789.692261 
	C2014.181396,786.703064 2014.114014,783.083923 2014.146973,778.564636 
z"/>
<path fill="#6F5B41" opacity="1.000000" stroke="none" 
	d="
M1975.468018,869.307495 
	C1974.869507,869.971802 1973.783813,870.295349 1972.697998,870.618896 
	C1973.018799,869.816528 1973.339478,869.014160 1973.990723,868.094360 
	C1974.541016,868.306885 1974.760864,868.636719 1975.468018,869.307495 
z"/>
<path fill="#6F5B41" opacity="1.000000" stroke="none" 
	d="
M1427.006104,1962.705322 
	C1427.155396,1964.996826 1427.007690,1967.964478 1426.535522,1971.608032 
	C1426.377075,1969.316406 1426.543091,1966.348999 1427.006104,1962.705322 
z"/>
<path fill="#1F6D99" opacity="1.000000" stroke="none" 
	d="
M1839.005127,951.132446 
	C1840.518188,950.705994 1842.677734,950.367615 1845.507568,950.096558 
	C1844.002563,950.516052 1841.827148,950.868347 1839.005127,951.132446 
z"/>
<path fill="#BB332C" opacity="1.000000" stroke="none" 
	d="
M2288.786621,1731.376953 
	C2290.289307,1731.064087 2292.578857,1730.879272 2295.395508,1730.961914 
	C2293.806152,1731.321411 2291.689941,1731.413208 2288.786621,1731.376953 
z"/>
<path fill="#1F6D99" opacity="1.000000" stroke="none" 
	d="
M1927.090820,1366.281250 
	C1925.635132,1366.539551 1923.408325,1366.690552 1920.636475,1366.668213 
	C1922.167603,1366.387817 1924.243530,1366.280884 1927.090820,1366.281250 
z"/>
<path fill="#1F6D99" opacity="1.000000" stroke="none" 
	d="
M1780.435303,1404.339111 
	C1782.024780,1404.329468 1784.264526,1404.508911 1787.122559,1404.933105 
	C1785.522583,1404.961304 1783.304077,1404.744873 1780.435303,1404.339111 
z"/>
<path fill="#1F6D99" opacity="1.000000" stroke="none" 
	d="
M1820.365967,1104.351562 
	C1821.405273,1104.335083 1823.025391,1104.522095 1825.204834,1104.943604 
	C1824.158325,1104.970459 1822.552612,1104.762817 1820.365967,1104.351562 
z"/>
<path fill="#1F6D99" opacity="1.000000" stroke="none" 
	d="
M1904.778687,1105.201660 
	C1905.763794,1104.828613 1907.362793,1104.461304 1909.587891,1104.120972 
	C1908.606812,1104.501099 1906.999756,1104.854248 1904.778687,1105.201660 
z"/>
<path fill="#BB332C" opacity="1.000000" stroke="none" 
	d="
M1670.785156,1731.277832 
	C1671.697998,1730.964844 1673.325806,1730.806396 1675.401367,1730.880371 
	C1674.399536,1731.219482 1672.949829,1731.325928 1670.785156,1731.277832 
z"/>
<path fill="#A23E40" opacity="1.000000" stroke="none" 
	d="
M2256.233154,2024.635742 
	C2256.889893,2024.463013 2258.057861,2024.580933 2259.714844,2025.043457 
	C2259.050537,2025.234253 2257.897705,2025.080322 2256.233154,2024.635742 
z"/>
<path fill="#BB332C" opacity="1.000000" stroke="none" 
	d="
M2067.701172,1686.878662 
	C2067.756104,1687.573730 2067.292725,1688.428833 2066.497070,1689.643066 
	C2066.503906,1689.014404 2066.843262,1688.026611 2067.701172,1686.878662 
z"/>
<path fill="#C62C34" opacity="1.000000" stroke="none" 
	d="
M1498.381226,1987.766846 
	C1498.251099,1987.177856 1498.375854,1986.112671 1498.767944,1984.576660 
	C1498.902100,1985.167603 1498.769165,1986.229126 1498.381226,1987.766846 
z"/>
<path fill="#A23E40" opacity="1.000000" stroke="none" 
	d="
M2274.401367,2025.531616 
	C2274.909424,2025.074463 2276.009033,2024.685547 2277.698242,2024.352173 
	C2277.189941,2024.805054 2276.091309,2025.202515 2274.401367,2025.531616 
z"/>
<path fill="#1F6D99" opacity="1.000000" stroke="none" 
	d="
M1735.302246,914.368408 
	C1734.899780,914.517029 1733.861206,914.554993 1732.456787,914.447937 
	C1732.949341,914.287964 1733.807739,914.272888 1735.302246,914.368408 
z"/>
<path fill="#C62C34" opacity="1.000000" stroke="none" 
	d="
M1499.694702,1571.576416 
	C1499.113525,1571.300781 1498.621948,1570.474854 1497.984375,1569.191528 
	C1498.486938,1569.498169 1499.135498,1570.262085 1499.694702,1571.576416 
z"/>
<path fill="#1F6D99" opacity="1.000000" stroke="none" 
	d="
M1923.707031,1404.463989 
	C1924.061035,1404.270142 1924.752075,1404.165039 1925.811523,1404.113037 
	C1925.468018,1404.295044 1924.755981,1404.423828 1923.707031,1404.463989 
z"/>
<path fill="#1F6D99" opacity="1.000000" stroke="none" 
	d="
M1855.295654,914.251953 
	C1854.911499,914.429626 1853.885986,914.560120 1852.481934,914.583984 
	C1852.953613,914.386475 1853.804077,914.295654 1855.295654,914.251953 
z"/>
<path fill="#1F6D99" opacity="1.000000" stroke="none" 
	d="
M1801.316650,1366.371948 
	C1800.923706,1366.533325 1799.904053,1366.591797 1798.524048,1366.518921 
	C1799.005737,1366.348022 1799.847900,1366.308472 1801.316650,1366.371948 
z"/>
<path fill="#BB332C" opacity="1.000000" stroke="none" 
	d="
M2087.074219,715.584900 
	C2086.668701,715.594727 2086.393311,715.080872 2086.239258,714.042236 
	C2086.642090,714.030151 2086.923340,714.544739 2087.074219,715.584900 
z"/>
<path fill="#DF2022" opacity="1.000000" stroke="none" 
	d="
M1921.261719,819.967529 
	C1921.236206,820.386658 1921.251343,820.812195 1921.266479,821.237671 
	C1921.479858,820.921753 1921.693237,820.605896 1921.627075,820.085938 
	C1921.347534,819.881836 1921.302490,819.973999 1921.261719,819.967529 
z"/>
<path fill="#6F5B41" opacity="1.000000" stroke="none" 
	d="
M1807.738892,601.949097 
	C1807.312744,601.977478 1807.022217,601.480286 1806.904541,600.453918 
	C1807.325684,600.442078 1807.591309,600.941711 1807.738892,601.949097 
z"/>
<path fill="#C62C34" opacity="1.000000" stroke="none" 
	d="
M1499.628174,1957.533691 
	C1499.226196,1957.543213 1499.166748,1956.994019 1499.455566,1956.166748 
	C1499.643799,1956.274902 1499.699463,1956.636963 1499.628174,1957.533691 
z"/>
<path fill="#BB332C" opacity="1.000000" stroke="none" 
	d="
M1924.863037,592.444519 
	C1925.276245,592.441162 1925.550293,592.968750 1925.707764,594.024902 
	C1925.289185,594.038940 1925.000122,593.512939 1924.863037,592.444519 
z"/>
<path fill="#6F5B41" opacity="1.000000" stroke="none" 
	d="
M1806.945068,577.652100 
	C1806.516724,577.376831 1806.614014,576.748169 1807.305176,575.795776 
	C1807.637573,576.074524 1807.494873,576.683411 1806.945068,577.652100 
z"/>
<path fill="#BB332C" opacity="1.000000" stroke="none" 
	d="
M1925.526611,561.958557 
	C1925.831177,562.205017 1925.715454,562.759216 1925.188721,563.621582 
	C1924.867432,563.373047 1924.977173,562.818604 1925.526611,561.958557 
z"/>
<path fill="#6F5B41" opacity="1.000000" stroke="none" 
	d="
M1956.178467,2018.787109 
	C1956.287354,2018.574829 1956.643799,2018.518188 1957.534668,2018.547607 
	C1958.069092,2018.633667 1957.286865,2018.998047 1957.286865,2018.998047 
	C1957.286865,2018.998047 1956.426025,2018.942749 1956.178467,2018.787109 
z"/>
<path fill="#6F5B41" opacity="1.000000" stroke="none" 
	d="
M1970.179199,2018.789062 
	C1970.287842,2018.576538 1970.644287,2018.519409 1971.534912,2018.547852 
	C1972.069214,2018.633667 1971.287476,2018.998779 1971.287476,2018.998779 
	C1971.287476,2018.998779 1970.426758,2018.944214 1970.179199,2018.789062 
z"/>
<path fill="#6F5B41" opacity="1.000000" stroke="none" 
	d="
M1984.179199,2018.789062 
	C1984.287842,2018.576538 1984.644287,2018.519409 1985.534912,2018.547852 
	C1986.069214,2018.633667 1985.287476,2018.998779 1985.287476,2018.998779 
	C1985.287476,2018.998779 1984.426758,2018.944214 1984.179199,2018.789062 
z"/>
<path fill="#6F5B41" opacity="1.000000" stroke="none" 
	d="
M1998.179199,2018.789062 
	C1998.287842,2018.576538 1998.644287,2018.519409 1999.534912,2018.547852 
	C2000.069214,2018.633667 1999.287476,2018.998779 1999.287476,2018.998779 
	C1999.287476,2018.998779 1998.426758,2018.944214 1998.179199,2018.789062 
z"/>
<path fill="#6F5B41" opacity="1.000000" stroke="none" 
	d="
M2012.179199,2018.789062 
	C2012.287842,2018.576538 2012.644287,2018.519409 2013.534912,2018.547852 
	C2014.069214,2018.633667 2013.287476,2018.998779 2013.287476,2018.998779 
	C2013.287476,2018.998779 2012.426758,2018.944214 2012.179199,2018.789062 
z"/>
<path fill="#6F5B41" opacity="1.000000" stroke="none" 
	d="
M2007.709229,557.952759 
	C2007.262695,557.996399 2006.937866,557.481689 2006.783447,556.398926 
	C2007.217285,556.380188 2007.509644,556.901367 2007.709229,557.952759 
z"/>
<path fill="#6F5B41" opacity="1.000000" stroke="none" 
	d="
M2026.179443,2018.788818 
	C2026.287964,2018.576294 2026.644409,2018.518921 2027.535645,2018.546509 
	C2028.070190,2018.631592 2027.288452,2018.997437 2027.288452,2018.997437 
	C2027.288452,2018.997437 2026.427246,2018.943970 2026.179443,2018.788818 
z"/>
<path fill="#6F5B41" opacity="1.000000" stroke="none" 
	d="
M2006.943848,539.651794 
	C2006.514648,539.376343 2006.611938,538.747192 2007.303955,537.794128 
	C2007.637085,538.073181 2007.494263,538.682495 2006.943848,539.651794 
z"/>
<path fill="#6F5B41" opacity="1.000000" stroke="none" 
	d="
M2104.494141,115.790771 
	C2104.276855,115.721436 2104.155762,115.388351 2104.047607,114.523987 
	C2104.467041,114.422501 2104.643555,114.933937 2104.494141,115.790771 
z"/>
<path fill="#6F5B41" opacity="1.000000" stroke="none" 
	d="
M1699.793945,1819.509155 
	C1699.718994,1819.725952 1699.385986,1819.839966 1698.527100,1819.912842 
	C1698.441284,1819.489746 1698.952881,1819.334595 1699.793945,1819.509155 
z"/>
<path fill="#BB332C" opacity="1.000000" stroke="none" 
	d="
M1710.099121,1681.467529 
	C1709.847778,1681.781128 1709.283569,1681.664551 1708.401123,1681.137451 
	C1708.654663,1680.787964 1709.222290,1680.891357 1710.099121,1681.467529 
z"/>
<path fill="#BB332C" opacity="1.000000" stroke="none" 
	d="
M2272.497559,1731.843994 
	C2272.396484,1731.422607 2272.903076,1731.246216 2273.753906,1731.417236 
	C2273.682129,1731.630127 2273.351074,1731.738281 2272.497559,1731.843994 
z"/>
<path fill="#1F6D99" opacity="1.000000" stroke="none" 
	d="
M1813.509399,914.595459 
	C1813.540771,914.865784 1813.071533,914.958130 1812.343018,914.816284 
	C1812.114868,914.741455 1813.039917,914.576721 1813.509399,914.595459 
z"/>
<path fill="#0E6EB5" opacity="1.000000" stroke="none" 
	d="
M2365.921143,1265.913940 
	C2365.921143,1265.913940 2365.631836,1266.026489 2365.737793,1266.019043 
	C2365.843506,1266.011475 2365.921143,1265.913940 2365.921143,1265.913940 
z"/>
<path fill="#0E6EB5" opacity="1.000000" stroke="none" 
	d="
M2367.997070,1267.902954 
	C2367.211182,1267.817505 2366.742676,1267.341553 2366.097656,1266.389893 
	C2365.921143,1265.913940 2365.843506,1266.011475 2365.794434,1266.055298 
	C2366.474121,1266.161621 2367.202881,1266.224121 2368.435059,1266.504272 
	C2368.730957,1266.985474 2368.522949,1267.248901 2367.997070,1267.902954 
z"/>
<path fill="#BB332C" opacity="1.000000" stroke="none" 
	d="
M2490.969238,1687.787842 
	C2490.644287,1687.999268 2490.354004,1687.806152 2490.043457,1687.247559 
	C2490.380127,1686.954712 2490.707031,1687.121826 2490.969238,1687.787842 
z"/>
<path fill="#BB332C" opacity="1.000000" stroke="none" 
	d="
M2483.760254,1687.034180 
	C2483.935547,1687.373047 2483.697998,1687.662720 2483.083984,1687.960449 
	C2482.826660,1687.597412 2483.039795,1687.269531 2483.760254,1687.034180 
z"/>
<path fill="#BB332C" opacity="1.000000" stroke="none" 
	d="
M2469.057129,1687.790894 
	C2468.739502,1688.008423 2468.429443,1687.816162 2468.072266,1687.256836 
	C2468.398438,1686.959839 2468.744873,1687.123535 2469.057129,1687.790894 
z"/>
<path fill="#1F6D99" opacity="1.000000" stroke="none" 
	d="
M1946.493896,1475.411011 
	C1946.463501,1475.145630 1946.929077,1475.054810 1947.651489,1475.193481 
	C1947.877930,1475.266602 1946.959839,1475.429321 1946.493896,1475.411011 
z"/>
<path fill="#BB332C" opacity="1.000000" stroke="none" 
	d="
M1851.618042,1686.550781 
	C1851.771362,1686.972046 1851.407104,1687.331299 1850.657104,1687.833496 
	C1850.213257,1687.321045 1850.489624,1686.825195 1851.618042,1686.550781 
z"/>
<path fill="#BB332C" opacity="1.000000" stroke="none" 
	d="
M2330.002441,1681.626221 
	C2330.298828,1681.823853 2329.598389,1681.906250 2329.598389,1681.906250 
	C2329.598389,1681.906250 2328.907227,1681.767456 2328.610352,1681.587036 
	C2328.780273,1681.245728 2329.244629,1681.253174 2330.002441,1681.626221 
z"/>
<path fill="#BB332C" opacity="1.000000" stroke="none" 
	d="
M1673.563721,1680.865967 
	C1673.568848,1681.281616 1673.042969,1681.556519 1671.988770,1681.714600 
	C1671.972534,1681.293823 1672.496582,1681.003052 1673.563721,1680.865967 
z"/>
<path fill="#BB332C" opacity="1.000000" stroke="none" 
	d="
M2291.398682,1681.321045 
	C2291.375488,1681.697754 2290.928711,1681.873169 2290.056641,1681.860596 
	C2290.069824,1681.471680 2290.517822,1681.287476 2291.398682,1681.321045 
z"/>
<path fill="#486F4C" opacity="1.000000" stroke="none" 
	d="
M1696.043579,1863.602905 
	C1710.649536,1863.602905 1725.255371,1863.602905 1740.288330,1863.602905 
	C1740.841187,1866.665894 1741.571899,1868.859985 1741.581543,1871.057129 
	C1741.673706,1892.354858 1741.557861,1913.653931 1741.722290,1934.950684 
	C1741.755981,1939.312866 1740.504761,1942.567871 1737.072754,1945.292725 
	C1723.695679,1955.913452 1709.414673,1964.844604 1693.102539,1970.357300 
	C1682.170654,1974.051514 1670.989868,1975.076416 1659.629395,1974.101562 
	C1638.199951,1972.262817 1622.554565,1958.951172 1618.870117,1937.932861 
	C1617.232422,1928.590454 1617.192261,1918.563477 1618.603394,1909.174438 
	C1621.593384,1889.281006 1635.268311,1878.153564 1653.256592,1871.613525 
	C1665.846558,1867.035889 1678.962524,1865.009521 1693.669556,1864.082886 
	C1695.380371,1863.839233 1695.712036,1863.721069 1696.043579,1863.602905 
z"/>
<path fill="#BB332C" opacity="1.000000" stroke="none" 
	d="
M1695.781250,1863.507568 
	C1695.712036,1863.721069 1695.380371,1863.839233 1694.520630,1863.946899 
	C1694.421265,1863.532837 1694.930054,1863.358154 1695.781250,1863.507568 
z"/>
<path fill="#486F4C" opacity="1.000000" stroke="none" 
	d="
M2316.053467,1863.513306 
	C2330.281250,1863.513306 2344.508789,1863.513306 2359.401855,1863.513306 
	C2359.782959,1867.558960 2360.277832,1870.430054 2360.287842,1873.302734 
	C2360.356689,1893.258667 2360.076904,1913.219849 2360.469238,1933.168335 
	C2360.594971,1939.556030 2358.424072,1943.627197 2353.422119,1947.382202 
	C2337.849609,1959.073242 2321.559326,1969.436646 2302.086914,1972.785522 
	C2293.370605,1974.284668 2284.104004,1974.657593 2275.357422,1973.500000 
	C2253.487549,1970.605347 2239.431396,1955.487305 2236.661865,1932.826782 
	C2235.862305,1926.286743 2235.876953,1919.477661 2236.702148,1912.941528 
	C2238.900146,1895.529419 2247.946289,1882.689575 2263.984863,1875.071411 
	C2279.262451,1867.814819 2295.594238,1865.215454 2313.656250,1863.997192 
	C2315.376953,1863.729248 2315.715332,1863.621338 2316.053467,1863.513306 
z"/>
<path fill="#BB332C" opacity="1.000000" stroke="none" 
	d="
M2315.789062,1863.409058 
	C2315.715332,1863.621338 2315.376953,1863.729248 2314.506348,1863.836426 
	C2314.407227,1863.416138 2314.924072,1863.239136 2315.789062,1863.409058 
z"/>
</svg>